<svg width="36" height="35" viewBox="0 0 36 35" fill="none" xmlns="http://www.w3.org/2000/svg">
<path d="M18 20.4167V15.3125M18 10.2083H18.0146M14.9375 28L17.0667 30.8389C17.3833 31.2611 17.5416 31.4722 17.7357 31.5476C17.9057 31.6138 18.0943 31.6138 18.2643 31.5476C18.4584 31.4722 18.6167 31.2611 18.9333 30.8389L21.0625 28C21.49 27.43 21.7038 27.145 21.9645 26.9274C22.3121 26.6373 22.7225 26.4321 23.1632 26.328C23.4937 26.25 23.85 26.25 24.5625 26.25C26.601 26.25 27.6202 26.25 28.4242 25.917C29.4962 25.4729 30.3479 24.6212 30.792 23.5492C31.125 22.7452 31.125 21.726 31.125 19.6875V11.375C31.125 8.92477 31.125 7.69966 30.6482 6.76379C30.2287 5.94058 29.5594 5.27129 28.7362 4.85185C27.8003 4.375 26.5752 4.375 24.125 4.375H11.875C9.42477 4.375 8.19966 4.375 7.26379 4.85185C6.44058 5.27129 5.77129 5.94058 5.35185 6.76379C4.875 7.69966 4.875 8.92477 4.875 11.375V19.6875C4.875 21.726 4.875 22.7452 5.20803 23.5492C5.65206 24.6212 6.50376 25.4729 7.57576 25.917C8.37976 26.25 9.39901 26.25 11.4375 26.25C12.15 26.25 12.5063 26.25 12.8368 26.328C13.2775 26.4321 13.6879 26.6373 14.0355 26.9274C14.2962 27.145 14.51 27.43 14.9375 28Z" stroke="white" stroke-width="2" stroke-linecap="round" stroke-linejoin="round"/>
</svg>
