<svg width="390" height="90" viewBox="0 0 390 90" fill="none" xmlns="http://www.w3.org/2000/svg">
<g filter="url(#filter0_b_126_324)">
<path d="M0 0H109.5H136H156H195C245 0 236 0 236 0H254H293.5H390V40C390 67.6142 367.614 90 340 90H195H50C22.3858 90 0 67.6142 0 40V0Z" fill="#5790DF" fill-opacity="0.6"/>
<path d="M236.63 0.5H236.631H254H293.5H389.5V40C389.5 67.3381 367.338 89.5 340 89.5H195H50C22.6619 89.5 0.5 67.3381 0.5 40V0.5H109.5H136H156H195H195.292H195.583H195.873H196.161H196.448H196.734H197.018H197.301H197.582H197.863H198.142H198.419H198.696H198.971H199.244H199.517H199.788H200.058H200.326H200.593H200.859H201.124H201.387H201.649H201.91H202.17H202.428H202.685H202.941H203.195H203.448H203.7H203.951H204.2H204.449H204.695H204.941H205.186H205.429H205.671H205.912H206.151H206.389H206.627H206.862H207.097H207.331H207.563H207.794H208.024H208.252H208.48H208.706H208.931H209.155H209.378H209.599H209.82H210.039H210.257H210.474H210.689H210.904H211.117H211.329H211.54H211.75H211.959H212.167H212.373H212.578H212.783H212.986H213.188H213.388H213.588H213.787H213.984H214.18H214.376H214.57H214.763H214.955H215.145H215.335H215.524H215.711H215.898H216.083H216.267H216.451H216.633H216.814H216.994H217.173H217.351H217.527H217.703H217.878H218.051H218.224H218.396H218.566H218.736H218.904H219.072H219.238H219.403H219.568H219.731H219.893H220.055H220.215H220.374H220.532H220.69H220.846H221.001H221.156H221.309H221.461H221.612H221.763H221.912H222.061H222.208H222.354H222.5H222.645H222.788H222.931H223.072H223.213H223.353H223.492H223.63H223.767H223.903H224.038H224.172H224.305H224.437H224.569H224.699H224.829H224.958H225.085H225.212H225.338H225.463H225.587H225.711H225.833H225.954H226.075H226.195H226.314H226.432H226.549H226.665H226.78H226.895H227.009H227.121H227.233H227.344H227.455H227.564H227.673H227.78H227.887H227.993H228.099H228.203H228.307H228.41H228.512H228.613H228.713H228.813H228.911H229.009H229.106H229.203H229.298H229.393H229.487H229.58H229.673H229.764H229.855H229.945H230.035H230.123H230.211H230.298H230.384H230.47H230.555H230.639H230.722H230.805H230.887H230.968H231.048H231.128H231.207H231.285H231.362H231.439H231.515H231.59H231.665H231.739H231.812H231.885H231.957H232.028H232.098H232.168H232.237H232.306H232.373H232.44H232.507H232.573H232.638H232.702H232.766H232.829H232.891H232.953H233.014H233.075H233.135H233.194H233.253H233.311H233.368H233.425H233.481H233.536H233.591H233.645H233.699H233.752H233.805H233.856H233.908H233.958H234.008H234.058H234.107H234.155H234.203H234.25H234.297H234.343H234.388H234.433H234.477H234.521H234.564H234.607H234.649H234.691H234.732H234.772H234.812H234.852H234.89H234.929H234.967H235.004H235.041H235.077H235.113H235.148H235.183H235.217H235.251H235.284H235.317H235.349H235.381H235.412H235.443H235.474H235.504H235.533H235.562H235.59H235.618H235.646H235.673H235.7H235.726H235.752H235.777H235.802H235.826H235.85H235.874H235.897H235.92H235.942H235.964H235.985H236H236H236.001H236.002H236.003H236.004H236.005H236.006H236.006H236.008H236.01H236.012H236.014H236.016H236.019H236.021H236.024H236.027H236.027H236.03H236.034H236.037H236.041H236.044H236.047H236.048H236.052H236.056H236.061H236.065H236.067H236.07H236.074H236.079H236.084H236.086H236.089H236.094H236.099H236.104H236.105H236.11H236.115H236.121H236.124H236.127H236.132H236.138H236.142H236.144H236.15H236.156H236.16H236.162H236.169H236.175H236.177H236.181H236.188H236.194H236.201H236.207H236.211H236.214H236.221H236.227H236.234H236.241H236.243H236.248H236.254H236.259H236.261H236.268H236.274H236.275H236.282H236.289H236.289H236.296H236.303H236.303H236.31H236.317H236.317H236.324H236.331H236.338H236.344H236.345H236.352H236.357H236.359H236.366H236.37H236.373H236.379H236.382H236.386H236.393H236.394H236.4H236.406H236.407H236.413H236.417H236.42H236.426H236.428H236.433H236.439H236.44H236.446H236.449H236.452H236.459H236.459H236.465H236.469H236.471H236.477H236.478H236.483H236.487H236.489H236.495H236.496H236.501H236.505H236.507H236.512H236.513H236.518H236.521H236.523H236.528H236.529H236.534H236.535H236.539H236.542H236.544H236.549H236.554H236.555H236.559H236.562H236.563H236.567H236.568H236.572H236.573H236.576H236.578H236.58H236.583H236.584H236.588H236.592H236.592H236.595H236.596H236.598H236.6H236.602H236.604H236.605H236.608H236.608H236.61H236.611H236.613H236.614H236.615H236.616H236.618H236.619H236.62H236.621H236.622H236.623H236.623H236.625H236.625H236.626H236.626H236.627H236.629H236.629H236.63H236.63Z" stroke="url(#paint0_linear_126_324)"/>
</g>
<defs>
<filter id="filter0_b_126_324" x="-100" y="-100" width="590" height="290" filterUnits="userSpaceOnUse" color-interpolation-filters="sRGB">
<feFlood flood-opacity="0" result="BackgroundImageFix"/>
<feGaussianBlur in="BackgroundImageFix" stdDeviation="50"/>
<feComposite in2="SourceAlpha" operator="in" result="effect1_backgroundBlur_126_324"/>
<feBlend mode="normal" in="SourceGraphic" in2="effect1_backgroundBlur_126_324" result="shape"/>
</filter>
<linearGradient id="paint0_linear_126_324" x1="235.5" y1="-179.618" x2="233.766" y2="-80.6976" gradientUnits="userSpaceOnUse">
<stop stop-opacity="0.15"/>
<stop offset="0.659575" stop-opacity="0.1"/>
<stop offset="1" stop-opacity="0"/>
</linearGradient>
</defs>
</svg>
