<svg width="28" height="28" viewBox="0 0 28 28" fill="none" xmlns="http://www.w3.org/2000/svg">
<g id="vuesax/outline/chart">
<g id="chart">
<path id="Vector" d="M6.5333 23.0417H4.66667C3.54667 23.0417 2.625 22.12 2.625 21V10.9433C2.625 9.82334 3.54667 8.90167 4.66667 8.90167H6.5333C7.6533 8.90167 8.57497 9.82334 8.57497 10.9433V21C8.57497 22.12 7.6533 23.0417 6.5333 23.0417ZM4.66667 10.64C4.50333 10.64 4.375 10.7683 4.375 10.9317V21C4.375 21.1633 4.50333 21.2917 4.66667 21.2917H6.5333C6.69664 21.2917 6.82497 21.1633 6.82497 21V10.9433C6.82497 10.78 6.69664 10.6517 6.5333 10.6517H4.66667V10.64Z" fill="#5956E9"/>
<path id="Vector_2" d="M14.9335 23.0417H13.0669C11.9469 23.0417 11.0252 22.12 11.0252 21V7.22167C11.0252 6.10167 11.9469 5.18001 13.0669 5.18001H14.9335C16.0535 5.18001 16.9752 6.10167 16.9752 7.22167V21C16.9752 22.12 16.0535 23.0417 14.9335 23.0417ZM13.0669 6.93001C12.9036 6.93001 12.7752 7.05834 12.7752 7.22167V21C12.7752 21.1633 12.9036 21.2917 13.0669 21.2917H14.9335C15.0969 21.2917 15.2252 21.1633 15.2252 21V7.22167C15.2252 7.05834 15.0969 6.93001 14.9335 6.93001H13.0669Z" fill="#5956E9"/>
<path id="Vector_3" d="M23.3332 23.0417H21.4666C20.3466 23.0417 19.4249 22.12 19.4249 21V3.49999C19.4249 2.37999 20.3466 1.45833 21.4666 1.45833H23.3332C24.4532 1.45833 25.3749 2.37999 25.3749 3.49999V21C25.3749 22.12 24.4532 23.0417 23.3332 23.0417ZM21.4666 3.20833C21.3032 3.20833 21.1749 3.33666 21.1749 3.49999V21C21.1749 21.1633 21.3032 21.2917 21.4666 21.2917H23.3332C23.4965 21.2917 23.6249 21.1633 23.6249 21V3.49999C23.6249 3.33666 23.4965 3.20833 23.3332 3.20833H21.4666Z" fill="#5956E9"/>
</g>
</g>
</svg>
