<svg width="28" height="28" viewBox="0 0 28 28" fill="none" xmlns="http://www.w3.org/2000/svg">
<g id="vuesax/outline/global">
<g id="global">
<path id="Vector" d="M14 26.5417C7.08167 26.5417 1.45833 20.9183 1.45833 14C1.45833 7.08167 7.08167 1.45833 14 1.45833C20.9183 1.45833 26.5417 7.08167 26.5417 14C26.5417 20.9183 20.9183 26.5417 14 26.5417ZM14 3.20833C8.05 3.20833 3.20833 8.05 3.20833 14C3.20833 19.95 8.05 24.7917 14 24.7917C19.95 24.7917 24.7917 19.95 24.7917 14C24.7917 8.05 19.95 3.20833 14 3.20833Z" fill="#5956E9"/>
<path id="Vector_2" d="M10.5 25.375H9.33333C8.855 25.375 8.45833 24.9783 8.45833 24.5C8.45833 24.0217 8.83167 23.6367 9.31 23.625C7.47833 17.3717 7.47833 10.6283 9.31 4.375C8.83167 4.36333 8.45833 3.97833 8.45833 3.5C8.45833 3.02167 8.855 2.625 9.33333 2.625H10.5C10.78 2.625 11.0483 2.765 11.2117 2.98667C11.375 3.22 11.4217 3.51167 11.3283 3.78C9.135 10.3717 9.135 17.6283 11.3283 24.2317C11.4217 24.5 11.375 24.7917 11.2117 25.025C11.0483 25.235 10.78 25.375 10.5 25.375Z" fill="#5956E9"/>
<path id="Vector_3" d="M17.5 25.375C17.4067 25.375 17.3133 25.3633 17.22 25.3283C16.765 25.1767 16.5083 24.675 16.6717 24.22C18.865 17.6283 18.865 10.3717 16.6717 3.76833C16.52 3.31333 16.765 2.81167 17.22 2.66C17.6867 2.50833 18.1767 2.75333 18.3283 3.20833C20.65 10.1617 20.65 17.815 18.3283 24.7567C18.2117 25.1417 17.8617 25.375 17.5 25.375Z" fill="#5956E9"/>
<path id="Vector_4" d="M14 20.0667C10.745 20.0667 7.50167 19.6117 4.375 18.69C4.36333 19.1567 3.97833 19.5417 3.5 19.5417C3.02167 19.5417 2.625 19.145 2.625 18.6667V17.5C2.625 17.22 2.765 16.9517 2.98667 16.7883C3.22 16.625 3.51167 16.5783 3.78 16.6717C10.3717 18.865 17.64 18.865 24.2317 16.6717C24.5 16.5783 24.7917 16.625 25.025 16.7883C25.2583 16.9517 25.3867 17.22 25.3867 17.5V18.6667C25.3867 19.145 24.99 19.5417 24.5117 19.5417C24.0333 19.5417 23.6483 19.1683 23.6367 18.69C20.4983 19.6117 17.255 20.0667 14 20.0667Z" fill="#5956E9"/>
<path id="Vector_5" d="M24.5 11.375C24.4067 11.375 24.3133 11.3633 24.22 11.3283C17.6283 9.135 10.36 9.135 3.76834 11.3283C3.30167 11.48 2.81167 11.235 2.66 10.78C2.52 10.3133 2.765 9.82333 3.22 9.67167C10.1733 7.35 17.8267 7.35 24.7683 9.67167C25.2233 9.82333 25.48 10.325 25.3167 10.78C25.2117 11.1417 24.8617 11.375 24.5 11.375Z" fill="#5956E9"/>
</g>
</g>
</svg>
