<svg width="32" height="32" viewBox="0 0 32 32" fill="none" xmlns="http://www.w3.org/2000/svg">
<g id="laptop-charging--device-laptop-electronics-computer-notebook-charging">
<path id="Union" fill-rule="evenodd" clip-rule="evenodd" d="M27.6168 2.66537C28.142 1.87762 27.9292 0.813272 27.1414 0.288097C26.3537 -0.23708 25.2892 -0.0242099 24.7642 0.763553L20.5736 7.04926C20.2229 7.57532 20.1903 8.25166 20.4886 8.80908C20.7869 9.36649 21.3678 9.71447 22 9.71447H25.0826L22.6689 13.335C22.1437 14.1227 22.3566 15.1871 23.1443 15.7123C23.932 16.2374 24.9964 16.0246 25.5217 15.2368L29.7121 8.95109C30.0627 8.42505 30.0954 7.74869 29.7971 7.19129C29.4988 6.63388 28.918 6.2859 28.2858 6.2859H25.2031L27.6168 2.66537ZM15.9922 6.95415C16.9389 6.95415 17.7065 7.72165 17.7065 8.66844C17.7065 9.6152 16.9389 10.3827 15.9922 10.3827H8.45548C8.1399 10.3827 7.88406 10.6386 7.88406 10.9541V20.0002H24.1002V19.4288C24.1002 18.482 24.8678 17.7145 25.8145 17.7145C26.7612 17.7145 27.5288 18.482 27.5288 19.4288V21.472L31.3096 26.515C33.0042 28.7753 31.3914 32.0003 28.5665 32.0003H3.4348C0.609794 32.0003 -1.00303 28.7753 0.691552 26.515L4.45548 21.4944V10.9541C4.45548 8.74501 6.24634 6.95415 8.45548 6.95415H15.9922Z" fill="#FDFDFD"/>
</g>
</svg>
