<svg width="36" height="35" viewBox="0 0 36 35" fill="none" xmlns="http://www.w3.org/2000/svg">
<path fill-rule="evenodd" clip-rule="evenodd" d="M7.17914 2.91669H13.2604C15.0726 2.91669 16.5416 4.38575 16.5416 6.19794V9.36252C16.5416 11.1747 15.0726 12.6438 13.2604 12.6438H7.17914C5.36695 12.6438 3.89789 11.1747 3.89789 9.36252V6.19794C3.89789 4.38575 5.36695 2.91669 7.17914 2.91669ZM13.2604 10.4563C13.8612 10.4484 14.3463 9.9633 14.3541 9.36252V6.19794C14.3463 5.59716 13.8612 5.11204 13.2604 5.10419H7.17914C6.57836 5.11204 6.09324 5.59716 6.08539 6.19794V9.36252C6.09324 9.9633 6.57836 10.4484 7.17914 10.4563H13.2604Z" fill="white"/>
<path fill-rule="evenodd" clip-rule="evenodd" d="M23.7166 2.91669H28.8208C30.633 2.91669 32.102 4.38575 32.102 6.19794V16.1584C32.102 17.9705 30.633 19.4396 28.8208 19.4396H23.7166C22.8452 19.4435 22.0083 19.0991 21.3921 18.4829C20.7759 17.8667 20.4315 17.0298 20.4354 16.1584V6.19794C20.4354 4.38575 21.9044 2.91669 23.7166 2.91669ZM28.8208 17.2521C29.4248 17.2521 29.9145 16.7624 29.9145 16.1584V6.19794C29.9067 5.59716 29.4216 5.11204 28.8208 5.10419H23.7166C23.1125 5.10419 22.6229 5.59388 22.6229 6.19794V16.1584C22.6189 16.4496 22.7329 16.7301 22.9388 16.9361C23.1448 17.1421 23.4253 17.2561 23.7166 17.2521H28.8208Z" fill="white"/>
<path fill-rule="evenodd" clip-rule="evenodd" d="M23.7166 23.3334H28.8208C30.633 23.3334 32.1021 24.8024 32.1021 26.6146V28.8021C32.1021 30.6143 30.633 32.0834 28.8208 32.0834H23.7166C21.9045 32.0834 20.4354 30.6143 20.4354 28.8021V26.6146C20.4354 24.8024 21.9045 23.3334 23.7166 23.3334ZM28.8208 29.8959C29.4216 29.888 29.9067 29.4029 29.9146 28.8021V26.6146C29.9067 26.0138 29.4216 25.5287 28.8208 25.5209H23.7166C23.1126 25.5209 22.6229 26.0105 22.6229 26.6146V28.8021C22.6229 29.4062 23.1126 29.8959 23.7166 29.8959H28.8208Z" fill="white"/>
<path fill-rule="evenodd" clip-rule="evenodd" d="M7.17914 16.5229H13.2604C15.0726 16.5229 16.5416 17.992 16.5416 19.8042V28.8021C16.5416 30.6143 15.0726 32.0834 13.2604 32.0834H7.17914C5.36695 32.0834 3.89789 30.6143 3.89789 28.8021V19.8042C3.89789 17.992 5.36695 16.5229 7.17914 16.5229ZM13.2604 29.8959C13.8612 29.888 14.3463 29.4029 14.3541 28.8021V19.8042C14.3463 19.2034 13.8612 18.7183 13.2604 18.7104H7.17914C6.57836 18.7183 6.09324 19.2034 6.08539 19.8042V28.8021C6.09324 29.4029 6.57836 29.888 7.17914 29.8959H13.2604Z" fill="white"/>
</svg>
