<svg width="31" height="33" viewBox="0 0 31 33" fill="none" xmlns="http://www.w3.org/2000/svg">
<path id="Union" fill-rule="evenodd" clip-rule="evenodd" d="M22.2792 1.49342C22.7696 1.00143 23.5083 0.853982 24.1499 1.12005L29.0135 3.13666C29.8846 3.49787 30.3003 4.49486 29.944 5.36798L27.9598 10.2301C27.6976 10.8725 27.0738 11.2935 26.3801 11.2966C25.6862 11.2997 25.059 10.8843 24.7911 10.2442L24.0059 8.36837L4.26247 16.8069C3.39189 17.179 2.38448 16.7749 2.01239 15.9043C1.64029 15.0337 2.04439 14.0263 2.91499 13.6542L22.6823 5.20553L21.912 3.36546C21.6439 2.72469 21.7889 1.98541 22.2792 1.49342ZM28.5714 13.5139C29.1776 13.5139 29.7591 13.7547 30.1877 14.1834C30.6162 14.612 30.8571 15.1934 30.8571 15.7996V31.7995C30.8571 32.4309 30.3454 32.9424 29.7143 32.9424H24C23.3689 32.9424 22.8571 32.4309 22.8571 31.7995V15.7996C22.8571 15.1934 23.0981 14.612 23.5266 14.1834C23.9552 13.7547 24.5367 13.5139 25.1429 13.5139H28.5714ZM18.7591 17.6119C18.3304 17.1833 17.7491 16.9425 17.1429 16.9425H13.7143C13.1081 16.9425 12.5267 17.1833 12.098 17.6119C11.6694 18.0406 11.4286 18.622 11.4286 19.2282V31.7995C11.4286 32.4309 11.9403 32.9424 12.5714 32.9424H18.2857C18.9169 32.9424 19.4286 32.4309 19.4286 31.7995V19.2282C19.4286 18.622 19.1877 18.0406 18.7591 17.6119ZM5.71429 20.371C6.3205 20.371 6.90187 20.6118 7.33054 21.0405C7.75918 21.4692 8 22.0505 8 22.6568V31.7995C8 32.4309 7.48832 32.9424 6.85714 32.9424H1.14286C0.511675 32.9424 0 32.4309 0 31.7995V22.6568C0 22.0505 0.240814 21.4692 0.66947 21.0405C1.09813 20.6118 1.67951 20.371 2.28571 20.371H5.71429Z" fill="white"/>
</svg>
