<svg width="19" height="19" viewBox="0 0 19 19" fill="none" xmlns="http://www.w3.org/2000/svg">
<g id="Phone_fill">
<path id="Vector 189" d="M3.67962 1.32038L4.29289 0.707107C4.68342 0.316583 5.31658 0.316582 5.70711 0.707106L8.29289 3.29289C8.68342 3.68342 8.68342 4.31658 8.29289 4.70711L6.50048 6.49952C6.2016 6.7984 6.1275 7.255 6.31653 7.63307C7.40929 9.81858 9.18142 11.5907 11.3669 12.6835C11.745 12.8725 12.2016 12.7984 12.5005 12.4995L14.2929 10.7071C14.6834 10.3166 15.3166 10.3166 15.7071 10.7071L18.2929 13.2929C18.6834 13.6834 18.6834 14.3166 18.2929 14.7071L17.6796 15.3204C15.5683 17.4317 12.2257 17.6693 9.83698 15.8777L8.62857 14.9714C6.88504 13.6638 5.33622 12.115 4.02857 10.3714L3.12226 9.16302C1.33072 6.7743 1.56827 3.43173 3.67962 1.32038Z" fill="#222222"/>
</g>
</svg>
