<svg width="32" height="32" viewBox="0 0 32 32" fill="none" xmlns="http://www.w3.org/2000/svg">
<path id="Subtract" fill-rule="evenodd" clip-rule="evenodd" d="M11.4262 0C10.3419 0 9.23317 0.350674 8.35659 1.07206C7.46745 1.80381 6.85351 2.90272 6.85351 4.16779V7.69344H3.42857C1.57895 7.69344 0 9.14491 0 11.0316V28.5938C0 30.4805 1.57895 31.9319 3.42857 31.9319H28.5714C30.421 31.9319 32 30.4805 32 28.5938V11.0316C32 9.14491 30.421 7.69344 28.5714 7.69344H25.1465V4.16779C25.1465 2.90272 24.5326 1.80381 23.6434 1.07206C22.7669 0.350674 21.6581 0 20.5739 0H11.4262ZM20.5751 7.69344V4.57143H11.4262L11.4249 7.69344H20.5751ZM10 19.8127C10 19.0237 10.6396 18.3841 11.4286 18.3841H14.5714V15.2413C14.5714 14.4523 15.211 13.8127 16 13.8127C16.789 13.8127 17.4286 14.4523 17.4286 15.2413V18.3841H20.5714C21.3604 18.3841 22 19.0237 22 19.8127C22 20.6017 21.3604 21.2413 20.5714 21.2413H17.4286V24.384C17.4286 25.173 16.789 25.8126 16 25.8126C15.211 25.8126 14.5714 25.173 14.5714 24.384V21.2413H11.4286C10.6396 21.2413 10 20.6017 10 19.8127Z" fill="#FDFDFD"/>
</svg>
