<svg width="28" height="28" viewBox="0 0 28 28" fill="none" xmlns="http://www.w3.org/2000/svg">
<g id="vuesax/outline/timer">
<g id="timer">
<path id="Vector" d="M17.78 26.5417H10.22C8.015 26.5417 6.405 25.62 5.78667 24.0333C5.145 22.3767 5.74 20.3233 7.28 18.935L12.6933 14L7.28 9.06499C5.74 7.67666 5.145 5.62333 5.78667 3.96666C6.405 2.36833 8.015 1.45833 10.22 1.45833H17.78C19.985 1.45833 21.595 2.37999 22.2133 3.96666C22.855 5.62333 22.26 7.67666 20.72 9.06499L15.3067 14L20.7317 18.935C22.26 20.3233 22.8667 22.3767 22.225 24.0333C21.595 25.62 19.985 26.5417 17.78 26.5417ZM14 15.1783L8.45833 20.2183C7.47833 21.1167 7.04667 22.4233 7.42 23.3917C7.77 24.29 8.76167 24.7917 10.22 24.7917H17.78C19.2383 24.7917 20.23 24.3017 20.58 23.3917C20.9533 22.4233 20.5333 21.1167 19.5417 20.2183L14 15.1783ZM10.22 3.20833C8.76167 3.20833 7.77 3.69833 7.42 4.60833C7.04667 5.57666 7.46667 6.88333 8.45833 7.78166L14 12.8217L19.5417 7.78166C20.5217 6.88333 20.9533 5.57666 20.58 4.60833C20.23 3.70999 19.2383 3.20833 17.78 3.20833H10.22Z" fill="#5956E9"/>
</g>
</g>
</svg>
