<svg width="32" height="33" viewBox="0 0 32 33" fill="none" xmlns="http://www.w3.org/2000/svg">
<path id="Union" fill-rule="evenodd" clip-rule="evenodd" d="M4.11429 0.5C3.02311 0.5 1.97662 0.933467 1.20505 1.70505C0.433467 2.47662 0 3.52311 0 4.61429V28.3857C0 29.4769 0.43347 30.5233 1.20505 31.295C1.97662 32.0666 3.02311 32.5 4.11429 32.5H12.604C12.3953 32.0216 12.3188 31.4888 12.3934 30.9587L12.6492 29.1427H4.51429C4.20741 29.1427 3.91307 29.0209 3.69607 28.804C3.47906 28.5869 3.35714 28.2927 3.35714 27.9857V16.5087C3.58325 16.5029 3.81006 16.5 4.03755 16.5C8.3232 16.5 12.3673 17.5343 15.9338 19.3669C16.3771 19.6893 16.9888 20.1492 17.6667 20.6816L24.6288 13.7048C25.1643 13.168 25.8914 12.8662 26.6496 12.8658C27.408 12.8654 28.1353 13.1664 28.6715 13.7026L32 17.0311V4.61429C32 3.52311 31.5666 2.47662 30.795 1.70505C30.0233 0.93347 28.9769 0.5 27.8857 0.5H4.11429ZM23.9287 8.70535C23.9287 10.5989 22.3936 12.1339 20.5 12.1339C18.6064 12.1339 17.0714 10.5989 17.0714 8.70535C17.0714 6.81182 18.6064 5.27678 20.5 5.27678L20.5517 5.27717L20.6027 5.27678C22.4395 5.27678 23.9287 6.76583 23.9287 8.60267L23.9282 8.65362L23.9287 8.70535ZM15.5351 29.1427L15.2227 31.3571L20.0918 30.6947L30.8576 19.9289L26.6519 15.7232L15.9089 26.489L15.5351 29.1427Z" fill="white"/>
</svg>
